<svg xmlns="http://www.w3.org/2000/svg" xmlns:xlink="http://www.w3.org/1999/xlink" width="76" height="76" preserveAspectRatio="xMidYMid" style="background-repeat-y:initial;background-repeat-x:initial;background-color:#020202;animation-play-state:paused" display="block"><g transform="scale(.3)" style="animation-play-state:paused"><defs style="animation-play-state:paused"><g id="id-0.8549216041258401" style="animation-play-state:paused"><path d="M75.1 50l9.4-15.5c.9-1.4-.2-3.2-1.8-3.2h-19L51.8 11.8c-.4-.7-1.1-1-1.8-1v78.5c.7 0 1.4-.3 1.8-1l11.9-19.5h19c1.7 0 2.7-1.8 1.8-3.2L75.1 50z" data-fill="c1" style="animation-play-state:paused" fill="#93dbe9"/><path d="M48.2 11.8L36.3 31.2h-19c-1.7 0-2.7 1.8-1.8 3.2L24.9 50l-9.4 15.5c-.9 1.4.2 3.2 1.8 3.2h19l11.9 19.5c.4.7 1.1 1 1.8 1V10.7c-.7 0-1.4.4-1.8 1.1z" data-fill="c2" style="animation-play-state:paused" fill="#689cc5"/></g></defs><g style="transform-origin:-43.697px -33.235px;animation-timing-function:linear;animation-play-state:paused;animation-name:beat-c9caa83c-63b6-456b-8faf-484e0333d0a3;animation-iteration-count:infinite;animation-fill-mode:forwards;animation-duration:1s"><path fill="#5e6fa3" data-fill="c3" style="animation-play-state:paused" d="M-32.739-29.047L-54.655-31.8l.875-5.623 20.241 3.147z" data-idx="0"/></g><g style="transform-origin:212.303px -33.235px;animation-timing-function:linear;animation-play-state:paused;animation-name:beat-c9caa83c-63b6-456b-8faf-484e0333d0a3;animation-iteration-count:infinite;animation-fill-mode:forwards;animation-duration:1s"><path fill="#5e6fa3" data-fill="c3" style="animation-play-state:paused" d="M223.261-29.047L201.345-31.8l.875-5.623 20.241 3.147z" data-idx="0"/></g><g style="transform-origin:-89.899px 85.4716px;animation-timing-function:linear;animation-play-state:paused;animation-name:beat-c9caa83c-63b6-456b-8faf-484e0333d0a3;animation-iteration-count:infinite;animation-fill-mode:forwards;animation-duration:1s"><path fill="#5e6fa3" d="M-89.895 96.49l-.149-.001a10.946 10.946 0 01-7.748-3.33c-4.239-4.352-4.147-11.342.205-15.581a10.957 10.957 0 017.833-3.124 10.95 10.95 0 017.748 3.33c4.239 4.352 4.147 11.342-.205 15.58a10.945 10.945 0 01-7.684 3.126zm-.007-16.996c-1.567 0-3.044.6-4.169 1.695a5.984 5.984 0 00-.111 8.453 5.938 5.938 0 004.204 1.806 5.949 5.949 0 004.25-1.695 5.985 5.985 0 00.112-8.453 5.938 5.938 0 00-4.204-1.806h-.082z" data-fill="c3" style="animation-play-state:paused" data-idx="1"/></g><g style="transform-origin:166.101px 85.4716px;animation-timing-function:linear;animation-play-state:paused;animation-name:beat-c9caa83c-63b6-456b-8faf-484e0333d0a3;animation-iteration-count:infinite;animation-fill-mode:forwards;animation-duration:1s"><path fill="#5e6fa3" d="M166.105 96.49l-.149-.001a10.946 10.946 0 01-7.748-3.33c-4.239-4.352-4.147-11.342.205-15.581a10.957 10.957 0 017.833-3.124 10.95 10.95 0 017.748 3.33c4.239 4.352 4.147 11.342-.205 15.58a10.945 10.945 0 01-7.684 3.126zm-.007-16.996c-1.567 0-3.044.6-4.169 1.695a5.984 5.984 0 00-.111 8.453 5.938 5.938 0 004.204 1.806 5.949 5.949 0 004.25-1.695 5.985 5.985 0 00.112-8.453 5.938 5.938 0 00-4.204-1.806h-.082z" data-fill="c3" style="animation-play-state:paused" data-idx="1"/></g><g style="transform-origin:106.49px -80.4995px;animation-timing-function:linear;animation-play-state:paused;animation-name:beat-c9caa83c-63b6-456b-8faf-484e0333d0a3;animation-iteration-count:infinite;animation-fill-mode:forwards;animation-duration:1s"><circle transform="rotate(-43.537 10.227 143.772)" fill="#5e6fa3" cx="234.5" cy="47.5" data-fill="c3" style="animation-play-state:paused" r="4.4" data-idx="2"/></g><g style="transform-origin:362.49px -80.4995px;animation-timing-function:linear;animation-play-state:paused;animation-name:beat-c9caa83c-63b6-456b-8faf-484e0333d0a3;animation-iteration-count:infinite;animation-fill-mode:forwards;animation-duration:1s"><circle transform="rotate(-43.537 138.232 -176.772)" fill="#5e6fa3" cx="234.5" cy="47.5" data-fill="c3" style="animation-play-state:paused" r="4.4" data-idx="2"/></g><g style="transform-origin:28.5333px 18.653px;animation-timing-function:linear;animation-play-state:paused;animation-name:beat-c9caa83c-63b6-456b-8faf-484e0333d0a3;animation-iteration-count:infinite;animation-fill-mode:forwards;animation-duration:1s"><path fill="#5e6fa3" d="M28.299 31.176l-1.714-5.053c3.929-1.333 6.042-5.614 4.709-9.543a7.475 7.475 0 00-3.796-4.331 7.472 7.472 0 00-5.747-.378l-1.714-5.053a12.779 12.779 0 019.822.646 12.777 12.777 0 016.488 7.402c2.278 6.716-1.332 14.032-8.048 16.31z" data-fill="c3" style="animation-play-state:paused" data-idx="3"/></g><g style="transform-origin:284.533px 18.653px;animation-timing-function:linear;animation-play-state:paused;animation-name:beat-c9caa83c-63b6-456b-8faf-484e0333d0a3;animation-iteration-count:infinite;animation-fill-mode:forwards;animation-duration:1s"><path fill="#5e6fa3" d="M284.299 31.176l-1.714-5.053c3.929-1.333 6.042-5.614 4.709-9.543a7.475 7.475 0 00-3.796-4.331 7.472 7.472 0 00-5.747-.378l-1.714-5.053a12.779 12.779 0 019.822.646 12.777 12.777 0 016.488 7.402c2.278 6.716-1.332 14.032-8.048 16.31z" data-fill="c3" style="animation-play-state:paused" data-idx="3"/></g><g style="transform-origin:-25.5058px 21.4949px;animation-timing-function:linear;animation-play-state:paused;animation-name:beat-c9caa83c-63b6-456b-8faf-484e0333d0a3;animation-iteration-count:infinite;animation-fill-mode:forwards;animation-duration:1s"><circle transform="rotate(-43.537 -121.775 245.772)" fill="#5e6fa3" cx="102.5" cy="149.5" data-fill="c3" style="animation-play-state:paused" r="4.4" data-idx="4"/></g><g style="transform-origin:230.494px 21.4949px;animation-timing-function:linear;animation-play-state:paused;animation-name:beat-c9caa83c-63b6-456b-8faf-484e0333d0a3;animation-iteration-count:infinite;animation-fill-mode:forwards;animation-duration:1s"><circle transform="rotate(-43.537 6.23 -74.772)" fill="#5e6fa3" cx="102.5" cy="149.5" data-fill="c3" style="animation-play-state:paused" r="4.4" data-idx="4"/></g><g style="transform-origin:114.171px 116.691px;animation-timing-function:linear;animation-play-state:paused;animation-name:beat-c9caa83c-63b6-456b-8faf-484e0333d0a3;animation-iteration-count:infinite;animation-fill-mode:forwards;animation-duration:1s"><path fill="#5e6fa3" data-fill="c3" style="animation-play-state:paused" d="M103.486 121.178l15.579-13.301 5.792 2.909-17.677 14.719z" data-idx="5"/></g><g style="transform-origin:370.172px 116.691px;animation-timing-function:linear;animation-play-state:paused;animation-name:beat-c9caa83c-63b6-456b-8faf-484e0333d0a3;animation-iteration-count:infinite;animation-fill-mode:forwards;animation-duration:1s"><path fill="#5e6fa3" data-fill="c3" style="animation-play-state:paused" d="M359.486 121.178l15.579-13.301 5.792 2.909-17.677 14.719z" data-idx="5"/></g><g style="transform-origin:-20.197px -96.9315px;animation-timing-function:linear;animation-play-state:paused;animation-name:beat-c9caa83c-63b6-456b-8faf-484e0333d0a3;animation-iteration-count:infinite;animation-fill-mode:forwards;animation-duration:1s"><path fill="#5e6fa3" data-fill="c3" style="animation-play-state:paused" d="M-12.633-106.046l-11.406 21.06-3.722-6.123 10.192-17.768z" data-idx="6"/></g><g style="transform-origin:235.803px -96.9315px;animation-timing-function:linear;animation-play-state:paused;animation-name:beat-c9caa83c-63b6-456b-8faf-484e0333d0a3;animation-iteration-count:infinite;animation-fill-mode:forwards;animation-duration:1s"><path fill="#5e6fa3" data-fill="c3" style="animation-play-state:paused" d="M243.367-106.046l-11.406 21.06-3.722-6.123 10.192-17.768z" data-idx="6"/></g><g style="transform-origin:94.1px -7.15031px;animation-timing-function:linear;animation-play-state:paused;animation-name:beat-c9caa83c-63b6-456b-8faf-484e0333d0a3;animation-iteration-count:infinite;animation-fill-mode:forwards;animation-duration:1s"><path fill="#5e6fa3" d="M94.104 2.57l-.132-.001a9.654 9.654 0 01-6.835-2.937c-3.74-3.84-3.659-10.006.181-13.746a9.666 9.666 0 016.91-2.756 9.655 9.655 0 016.835 2.938c3.74 3.839 3.659 10.006-.181 13.745a9.653 9.653 0 01-6.778 2.757zm-.005-14.994a5.24 5.24 0 00-3.678 1.496 5.28 5.28 0 00-.098 7.458 5.242 5.242 0 003.708 1.594 5.242 5.242 0 003.749-1.495 5.28 5.28 0 00.098-7.457 5.242 5.242 0 00-3.708-1.594c-.024-.002-.048-.002-.071-.002z" data-fill="c3" style="animation-play-state:paused" data-idx="7"/></g><g style="transform-origin:350.1px -7.15031px;animation-timing-function:linear;animation-play-state:paused;animation-name:beat-c9caa83c-63b6-456b-8faf-484e0333d0a3;animation-iteration-count:infinite;animation-fill-mode:forwards;animation-duration:1s"><path fill="#5e6fa3" d="M350.104 2.57l-.132-.001a9.654 9.654 0 01-6.835-2.937c-3.74-3.84-3.659-10.006.181-13.746a9.666 9.666 0 016.91-2.756 9.655 9.655 0 016.835 2.938c3.74 3.839 3.659 10.006-.181 13.745a9.653 9.653 0 01-6.778 2.757zm-.005-14.994a5.24 5.24 0 00-3.678 1.496 5.28 5.28 0 00-.098 7.458 5.242 5.242 0 003.708 1.594 5.242 5.242 0 003.749-1.495 5.28 5.28 0 00.098-7.457 5.242 5.242 0 00-3.708-1.594c-.024-.002-.048-.002-.071-.002z" data-fill="c3" style="animation-play-state:paused" data-idx="7"/></g><g style="transform-origin:46.6647px -119.158px;animation-timing-function:linear;animation-play-state:paused;animation-name:beat-c9caa83c-63b6-456b-8faf-484e0333d0a3;animation-iteration-count:infinite;animation-fill-mode:forwards;animation-duration:1s"><path fill="#5e6fa3" d="M56.509-117.978l-4.015 1.058a5.861 5.861 0 00-7.154-4.17 5.818 5.818 0 00-3.567 2.713 5.808 5.808 0 00-.603 4.44l-4.015 1.058a9.941 9.941 0 011.031-7.589 9.942 9.942 0 016.096-4.637c5.337-1.406 10.821 1.792 12.227 7.127z" data-fill="c3" style="animation-play-state:paused" data-idx="8"/></g><g style="transform-origin:302.665px -119.158px;animation-timing-function:linear;animation-play-state:paused;animation-name:beat-c9caa83c-63b6-456b-8faf-484e0333d0a3;animation-iteration-count:infinite;animation-fill-mode:forwards;animation-duration:1s"><path fill="#5e6fa3" d="M312.509-117.978l-4.015 1.058a5.861 5.861 0 00-7.154-4.17 5.818 5.818 0 00-3.567 2.713 5.808 5.808 0 00-.603 4.44l-4.015 1.058a9.941 9.941 0 011.031-7.589 9.942 9.942 0 016.096-4.637c5.337-1.406 10.821 1.792 12.227 7.127z" data-fill="c3" style="animation-play-state:paused" data-idx="8"/></g><g style="transform-origin:-6.92413px 94.3993px;animation-timing-function:linear;animation-play-state:paused;animation-name:beat-c9caa83c-63b6-456b-8faf-484e0333d0a3;animation-iteration-count:infinite;animation-fill-mode:forwards;animation-duration:1s"><use xlink:href="#id-0.8549216041258401" x="-50" y="-50" style="animation-play-state:paused" transform="rotate(7.614 -712.778 -4.827) scale(.61081)" data-idx="9"/></g><g style="transform-origin:249.076px 94.3993px;animation-timing-function:linear;animation-play-state:paused;animation-name:beat-c9caa83c-63b6-456b-8faf-484e0333d0a3;animation-iteration-count:infinite;animation-fill-mode:forwards;animation-duration:1s"><use xlink:href="#id-0.8549216041258401" x="-50" y="-50" style="animation-play-state:paused" transform="rotate(7.614 -584.777 1918.763) scale(.61081)" data-idx="9"/></g><g style="transform-origin:33.2568px -52.8258px;animation-timing-function:linear;animation-play-state:paused;animation-name:beat-c9caa83c-63b6-456b-8faf-484e0333d0a3;animation-iteration-count:infinite;animation-fill-mode:forwards;animation-duration:1s"><use xlink:href="#id-0.8549216041258401" x="-50" y="-50" style="animation-play-state:paused" transform="rotate(92.613 41.863 -10.526) scale(.42938)" data-idx="10"/></g><g style="transform-origin:289.257px -52.8258px;animation-timing-function:linear;animation-play-state:paused;animation-name:beat-c9caa83c-63b6-456b-8faf-484e0333d0a3;animation-iteration-count:infinite;animation-fill-mode:forwards;animation-duration:1s"><use xlink:href="#id-0.8549216041258401" x="-50" y="-50" style="animation-play-state:paused" transform="rotate(92.613 169.864 111.764) scale(.42938)" data-idx="10"/></g><g style="transform-origin:87.3082px 65.0824px;animation-timing-function:linear;animation-play-state:paused;animation-name:beat-c9caa83c-63b6-456b-8faf-484e0333d0a3;animation-iteration-count:infinite;animation-fill-mode:forwards;animation-duration:1s"><use xlink:href="#id-0.8549216041258401" x="-50" y="-50" style="animation-play-state:paused" transform="matrix(.27713 -.37879 .37879 .27713 87.308 65.082)" data-idx="11"/></g><g style="transform-origin:343.308px 65.0824px;animation-timing-function:linear;animation-play-state:paused;animation-name:beat-c9caa83c-63b6-456b-8faf-484e0333d0a3;animation-iteration-count:infinite;animation-fill-mode:forwards;animation-duration:1s"><use xlink:href="#id-0.8549216041258401" x="-50" y="-50" style="animation-play-state:paused" transform="matrix(.27713 -.37879 .37879 .27713 343.308 65.082)" data-idx="11"/></g><g style="transform-origin:-78.8149px -89.6956px;animation-timing-function:linear;animation-play-state:paused;animation-name:beat-c9caa83c-63b6-456b-8faf-484e0333d0a3;animation-iteration-count:infinite;animation-fill-mode:forwards;animation-duration:1s"><use xlink:href="#id-0.8549216041258401" x="-50" y="-50" style="animation-play-state:paused" transform="rotate(-118.351 -66.168 -21.334) scale(.53827)" data-idx="12"/></g><g style="transform-origin:177.185px -89.6956px;animation-timing-function:linear;animation-play-state:paused;animation-name:beat-c9caa83c-63b6-456b-8faf-484e0333d0a3;animation-iteration-count:infinite;animation-fill-mode:forwards;animation-duration:1s"><use xlink:href="#id-0.8549216041258401" x="-50" y="-50" style="animation-play-state:paused" transform="rotate(-118.351 61.832 -97.71) scale(.53827)" data-idx="12"/></g><g style="transform-origin:-89.5674px 14.2466px;animation-timing-function:linear;animation-play-state:paused;animation-name:beat-c9caa83c-63b6-456b-8faf-484e0333d0a3;animation-iteration-count:infinite;animation-fill-mode:forwards;animation-duration:1s"><use xlink:href="#id-0.8549216041258401" x="-50" y="-50" style="animation-play-state:paused" transform="matrix(.40368 -.369 .369 .40368 -89.567 14.247)" data-idx="13"/></g><g style="transform-origin:166.433px 14.2466px;animation-timing-function:linear;animation-play-state:paused;animation-name:beat-c9caa83c-63b6-456b-8faf-484e0333d0a3;animation-iteration-count:infinite;animation-fill-mode:forwards;animation-duration:1s"><use xlink:href="#id-0.8549216041258401" x="-50" y="-50" style="animation-play-state:paused" transform="matrix(.40368 -.369 .369 .40368 166.433 14.247)" data-idx="13"/></g><g style="transform-origin:-43.697px 222.765px;animation-timing-function:linear;animation-play-state:paused;animation-name:beat-c9caa83c-63b6-456b-8faf-484e0333d0a3;animation-iteration-count:infinite;animation-fill-mode:forwards;animation-duration:1s"><path fill="#5e6fa3" data-fill="c3" style="animation-play-state:paused" d="M-32.739 226.953l-21.916-2.753.875-5.623 20.241 3.147z" data-idx="0"/></g><g style="transform-origin:212.303px 222.765px;animation-timing-function:linear;animation-play-state:paused;animation-name:beat-c9caa83c-63b6-456b-8faf-484e0333d0a3;animation-iteration-count:infinite;animation-fill-mode:forwards;animation-duration:1s"><path fill="#5e6fa3" data-fill="c3" style="animation-play-state:paused" d="M223.261 226.953l-21.916-2.753.875-5.623 20.241 3.147z" data-idx="0"/></g><g style="transform-origin:-89.899px 341.472px;animation-timing-function:linear;animation-play-state:paused;animation-name:beat-c9caa83c-63b6-456b-8faf-484e0333d0a3;animation-iteration-count:infinite;animation-fill-mode:forwards;animation-duration:1s"><path fill="#5e6fa3" d="M-89.895 352.49l-.149-.001a10.946 10.946 0 01-7.748-3.33c-4.239-4.352-4.147-11.342.205-15.581a10.957 10.957 0 017.833-3.124 10.95 10.95 0 017.748 3.33c4.239 4.352 4.147 11.342-.205 15.58a10.945 10.945 0 01-7.684 3.126zm-.007-16.996c-1.567 0-3.044.6-4.169 1.695a5.984 5.984 0 00-.111 8.453 5.938 5.938 0 004.204 1.806 5.949 5.949 0 004.25-1.695 5.985 5.985 0 00.112-8.453 5.938 5.938 0 00-4.204-1.806h-.082z" data-fill="c3" style="animation-play-state:paused" data-idx="1"/></g><g style="transform-origin:166.101px 341.472px;animation-timing-function:linear;animation-play-state:paused;animation-name:beat-c9caa83c-63b6-456b-8faf-484e0333d0a3;animation-iteration-count:infinite;animation-fill-mode:forwards;animation-duration:1s"><path fill="#5e6fa3" d="M166.105 352.49l-.149-.001a10.946 10.946 0 01-7.748-3.33c-4.239-4.352-4.147-11.342.205-15.581a10.957 10.957 0 017.833-3.124 10.95 10.95 0 017.748 3.33c4.239 4.352 4.147 11.342-.205 15.58a10.945 10.945 0 01-7.684 3.126zm-.007-16.996c-1.567 0-3.044.6-4.169 1.695a5.984 5.984 0 00-.111 8.453 5.938 5.938 0 004.204 1.806 5.949 5.949 0 004.25-1.695 5.985 5.985 0 00.112-8.453 5.938 5.938 0 00-4.204-1.806h-.082z" data-fill="c3" style="animation-play-state:paused" data-idx="1"/></g><g style="transform-origin:106.49px 175.501px;animation-timing-function:linear;animation-play-state:paused;animation-name:beat-c9caa83c-63b6-456b-8faf-484e0333d0a3;animation-iteration-count:infinite;animation-fill-mode:forwards;animation-duration:1s"><circle transform="rotate(-43.537 330.771 271.777)" fill="#5e6fa3" cx="234.5" cy="47.5" data-fill="c3" style="animation-play-state:paused" r="4.4" data-idx="2"/></g><g style="transform-origin:362.49px 175.501px;animation-timing-function:linear;animation-play-state:paused;animation-name:beat-c9caa83c-63b6-456b-8faf-484e0333d0a3;animation-iteration-count:infinite;animation-fill-mode:forwards;animation-duration:1s"><circle transform="rotate(-43.537 458.776 -48.767)" fill="#5e6fa3" cx="234.5" cy="47.5" data-fill="c3" style="animation-play-state:paused" r="4.4" data-idx="2"/></g><g style="transform-origin:28.5333px 274.653px;animation-timing-function:linear;animation-play-state:paused;animation-name:beat-c9caa83c-63b6-456b-8faf-484e0333d0a3;animation-iteration-count:infinite;animation-fill-mode:forwards;animation-duration:1s"><path fill="#5e6fa3" d="M28.299 287.176l-1.714-5.053c3.929-1.333 6.042-5.614 4.709-9.543a7.475 7.475 0 00-3.796-4.331 7.472 7.472 0 00-5.747-.378l-1.714-5.053a12.779 12.779 0 019.822.646 12.777 12.777 0 016.488 7.402c2.278 6.716-1.332 14.032-8.048 16.31z" data-fill="c3" style="animation-play-state:paused" data-idx="3"/></g><g style="transform-origin:284.533px 274.653px;animation-timing-function:linear;animation-play-state:paused;animation-name:beat-c9caa83c-63b6-456b-8faf-484e0333d0a3;animation-iteration-count:infinite;animation-fill-mode:forwards;animation-duration:1s"><path fill="#5e6fa3" d="M284.299 287.176l-1.714-5.053c3.929-1.333 6.042-5.614 4.709-9.543a7.475 7.475 0 00-3.796-4.331 7.472 7.472 0 00-5.747-.378l-1.714-5.053a12.779 12.779 0 019.822.646 12.777 12.777 0 016.488 7.402c2.278 6.716-1.332 14.032-8.048 16.31z" data-fill="c3" style="animation-play-state:paused" data-idx="3"/></g><g style="transform-origin:-25.5058px 277.495px;animation-timing-function:linear;animation-play-state:paused;animation-name:beat-c9caa83c-63b6-456b-8faf-484e0333d0a3;animation-iteration-count:infinite;animation-fill-mode:forwards;animation-duration:1s"><circle transform="rotate(-43.537 198.769 373.777)" fill="#5e6fa3" cx="102.5" cy="149.5" data-fill="c3" style="animation-play-state:paused" r="4.4" data-idx="4"/></g><g style="transform-origin:230.494px 277.495px;animation-timing-function:linear;animation-play-state:paused;animation-name:beat-c9caa83c-63b6-456b-8faf-484e0333d0a3;animation-iteration-count:infinite;animation-fill-mode:forwards;animation-duration:1s"><circle transform="rotate(-43.537 326.773 53.233)" fill="#5e6fa3" cx="102.5" cy="149.5" data-fill="c3" style="animation-play-state:paused" r="4.4" data-idx="4"/></g><g style="transform-origin:114.171px 372.691px;animation-timing-function:linear;animation-play-state:paused;animation-name:beat-c9caa83c-63b6-456b-8faf-484e0333d0a3;animation-iteration-count:infinite;animation-fill-mode:forwards;animation-duration:1s"><path fill="#5e6fa3" data-fill="c3" style="animation-play-state:paused" d="M103.486 377.178l15.579-13.301 5.792 2.909-17.677 14.719z" data-idx="5"/></g><g style="transform-origin:370.172px 372.691px;animation-timing-function:linear;animation-play-state:paused;animation-name:beat-c9caa83c-63b6-456b-8faf-484e0333d0a3;animation-iteration-count:infinite;animation-fill-mode:forwards;animation-duration:1s"><path fill="#5e6fa3" data-fill="c3" style="animation-play-state:paused" d="M359.486 377.178l15.579-13.301 5.792 2.909-17.677 14.719z" data-idx="5"/></g><g style="transform-origin:-20.197px 159.068px;animation-timing-function:linear;animation-play-state:paused;animation-name:beat-c9caa83c-63b6-456b-8faf-484e0333d0a3;animation-iteration-count:infinite;animation-fill-mode:forwards;animation-duration:1s"><path fill="#5e6fa3" data-fill="c3" style="animation-play-state:paused" d="M-12.633 149.954l-11.406 21.06-3.722-6.123 10.192-17.768z" data-idx="6"/></g><g style="transform-origin:235.803px 159.068px;animation-timing-function:linear;animation-play-state:paused;animation-name:beat-c9caa83c-63b6-456b-8faf-484e0333d0a3;animation-iteration-count:infinite;animation-fill-mode:forwards;animation-duration:1s"><path fill="#5e6fa3" data-fill="c3" style="animation-play-state:paused" d="M243.367 149.954l-11.406 21.06-3.722-6.123 10.192-17.768z" data-idx="6"/></g><g style="transform-origin:94.1px 248.85px;animation-timing-function:linear;animation-play-state:paused;animation-name:beat-c9caa83c-63b6-456b-8faf-484e0333d0a3;animation-iteration-count:infinite;animation-fill-mode:forwards;animation-duration:1s"><path fill="#5e6fa3" d="M94.104 258.57l-.132-.001a9.654 9.654 0 01-6.835-2.937c-3.74-3.84-3.659-10.006.181-13.746a9.666 9.666 0 016.91-2.756 9.655 9.655 0 016.835 2.938c3.74 3.839 3.659 10.006-.181 13.745a9.653 9.653 0 01-6.778 2.757zm-.005-14.994a5.24 5.24 0 00-3.678 1.496 5.28 5.28 0 00-.098 7.458 5.242 5.242 0 003.708 1.594 5.242 5.242 0 003.749-1.495 5.28 5.28 0 00.098-7.457 5.242 5.242 0 00-3.708-1.594c-.024-.002-.048-.002-.071-.002z" data-fill="c3" style="animation-play-state:paused" data-idx="7"/></g><g style="transform-origin:350.1px 248.85px;animation-timing-function:linear;animation-play-state:paused;animation-name:beat-c9caa83c-63b6-456b-8faf-484e0333d0a3;animation-iteration-count:infinite;animation-fill-mode:forwards;animation-duration:1s"><path fill="#5e6fa3" d="M350.104 258.57l-.132-.001a9.654 9.654 0 01-6.835-2.937c-3.74-3.84-3.659-10.006.181-13.746a9.666 9.666 0 016.91-2.756 9.655 9.655 0 016.835 2.938c3.74 3.839 3.659 10.006-.181 13.745a9.653 9.653 0 01-6.778 2.757zm-.005-14.994a5.24 5.24 0 00-3.678 1.496 5.28 5.28 0 00-.098 7.458 5.242 5.242 0 003.708 1.594 5.242 5.242 0 003.749-1.495 5.28 5.28 0 00.098-7.457 5.242 5.242 0 00-3.708-1.594c-.024-.002-.048-.002-.071-.002z" data-fill="c3" style="animation-play-state:paused" data-idx="7"/></g><g style="transform-origin:46.6647px 136.842px;animation-timing-function:linear;animation-play-state:paused;animation-name:beat-c9caa83c-63b6-456b-8faf-484e0333d0a3;animation-iteration-count:infinite;animation-fill-mode:forwards;animation-duration:1s"><path fill="#5e6fa3" d="M56.509 138.022l-4.015 1.058a5.861 5.861 0 00-7.154-4.17 5.818 5.818 0 00-3.567 2.713 5.808 5.808 0 00-.603 4.44l-4.015 1.058a9.941 9.941 0 011.031-7.589 9.942 9.942 0 016.096-4.637c5.337-1.406 10.821 1.792 12.227 7.127z" data-fill="c3" style="animation-play-state:paused" data-idx="8"/></g><g style="transform-origin:302.665px 136.842px;animation-timing-function:linear;animation-play-state:paused;animation-name:beat-c9caa83c-63b6-456b-8faf-484e0333d0a3;animation-iteration-count:infinite;animation-fill-mode:forwards;animation-duration:1s"><path fill="#5e6fa3" d="M312.509 138.022l-4.015 1.058a5.861 5.861 0 00-7.154-4.17 5.818 5.818 0 00-3.567 2.713 5.808 5.808 0 00-.603 4.44l-4.015 1.058a9.941 9.941 0 011.031-7.589 9.942 9.942 0 016.096-4.637c5.337-1.406 10.821 1.792 12.227 7.127z" data-fill="c3" style="animation-play-state:paused" data-idx="8"/></g><g style="transform-origin:-6.92413px 350.399px;animation-timing-function:linear;animation-play-state:paused;animation-name:beat-c9caa83c-63b6-456b-8faf-484e0333d0a3;animation-iteration-count:infinite;animation-fill-mode:forwards;animation-duration:1s"><use xlink:href="#id-0.8549216041258401" x="-50" y="-50" style="animation-play-state:paused" transform="rotate(7.614 -2636.369 123.175) scale(.61081)" data-idx="9"/></g><g style="transform-origin:249.076px 350.399px;animation-timing-function:linear;animation-play-state:paused;animation-name:beat-c9caa83c-63b6-456b-8faf-484e0333d0a3;animation-iteration-count:infinite;animation-fill-mode:forwards;animation-duration:1s"><use xlink:href="#id-0.8549216041258401" x="-50" y="-50" style="animation-play-state:paused" transform="rotate(7.614 -2508.367 2046.765) scale(.61081)" data-idx="9"/></g><g style="transform-origin:33.2568px 203.174px;animation-timing-function:linear;animation-play-state:paused;animation-name:beat-c9caa83c-63b6-456b-8faf-484e0333d0a3;animation-iteration-count:infinite;animation-fill-mode:forwards;animation-duration:1s"><use xlink:href="#id-0.8549216041258401" x="-50" y="-50" style="animation-play-state:paused" transform="rotate(92.613 -80.427 117.474) scale(.42938)" data-idx="10"/></g><g style="transform-origin:289.257px 203.174px;animation-timing-function:linear;animation-play-state:paused;animation-name:beat-c9caa83c-63b6-456b-8faf-484e0333d0a3;animation-iteration-count:infinite;animation-fill-mode:forwards;animation-duration:1s"><use xlink:href="#id-0.8549216041258401" x="-50" y="-50" style="animation-play-state:paused" transform="rotate(92.613 47.573 239.765) scale(.42938)" data-idx="10"/></g><g style="transform-origin:87.3082px 321.082px;animation-timing-function:linear;animation-play-state:paused;animation-name:beat-c9caa83c-63b6-456b-8faf-484e0333d0a3;animation-iteration-count:infinite;animation-fill-mode:forwards;animation-duration:1s"><use xlink:href="#id-0.8549216041258401" x="-50" y="-50" style="animation-play-state:paused" transform="rotate(-53.81 360.029 74.511) scale(.46934)" data-idx="11"/></g><g style="transform-origin:343.308px 321.082px;animation-timing-function:linear;animation-play-state:paused;animation-name:beat-c9caa83c-63b6-456b-8faf-484e0333d0a3;animation-iteration-count:infinite;animation-fill-mode:forwards;animation-duration:1s"><use xlink:href="#id-0.8549216041258401" x="-50" y="-50" style="animation-play-state:paused" transform="matrix(.27713 -.37879 .37879 .27713 343.308 321.082)" data-idx="11"/></g><g style="transform-origin:-78.8149px 166.304px;animation-timing-function:linear;animation-play-state:paused;animation-name:beat-c9caa83c-63b6-456b-8faf-484e0333d0a3;animation-iteration-count:infinite;animation-fill-mode:forwards;animation-duration:1s"><use xlink:href="#id-0.8549216041258401" x="-50" y="-50" style="animation-play-state:paused" transform="rotate(-118.351 10.21 106.667) scale(.53827)" data-idx="12"/></g><g style="transform-origin:177.185px 166.304px;animation-timing-function:linear;animation-play-state:paused;animation-name:beat-c9caa83c-63b6-456b-8faf-484e0333d0a3;animation-iteration-count:infinite;animation-fill-mode:forwards;animation-duration:1s"><use xlink:href="#id-0.8549216041258401" x="-50" y="-50" style="animation-play-state:paused" transform="rotate(-118.351 138.21 30.29) scale(.53827)" data-idx="12"/></g><g style="transform-origin:-89.5674px 270.247px;animation-timing-function:linear;animation-play-state:paused;animation-name:beat-c9caa83c-63b6-456b-8faf-484e0333d0a3;animation-iteration-count:infinite;animation-fill-mode:forwards;animation-duration:1s"><use xlink:href="#id-0.8549216041258401" x="-50" y="-50" style="animation-play-state:paused" transform="matrix(.40368 -.369 .369 .40368 -89.567 270.247)" data-idx="13"/></g><g style="transform-origin:166.433px 270.247px;animation-timing-function:linear;animation-play-state:paused;animation-name:beat-c9caa83c-63b6-456b-8faf-484e0333d0a3;animation-iteration-count:infinite;animation-fill-mode:forwards;animation-duration:1s"><use xlink:href="#id-0.8549216041258401" x="-50" y="-50" style="animation-play-state:paused" transform="matrix(.40368 -.369 .369 .40368 166.433 270.247)" data-idx="13"/></g></g></svg>